<svg xmlns="http://www.w3.org/2000/svg" xmlns:xlink="http://www.w3.org/1999/xlink" width="167px" height="33px" viewBox="0 0 167 33"><title>Group 14</title><defs><polygon id="path-1" points="0.192360939 0.275539938 24.8993368 0.275539938 24.8993368 31.1727364 0.192360939 31.1727364"></polygon><polygon id="path-3" points="0.000380159959 0.276224226 49.3016525 0.276224226 49.3016525 30.4084629 0.000380159959 30.4084629"></polygon><polygon id="path-5" points="0.275360635 0.0798335913 30.613141 0.0798335913 30.613141 31.1727364 0.275360635 31.1727364"></polygon></defs><g id="Page-1" stroke="none" stroke-width="1" fill="none" fill-rule="evenodd"><g id="Careers-Default" transform="translate(-172.000000, -2670.000000)"><g id="Group-18" transform="translate(167.000000, 2553.000000)"><g id="Group-14" transform="translate(5.000000, 117.000000)"><g id="Group-3" transform="translate(141.799665, 0.300745)"><mask id="mask-2" fill="white"><use xlink:href="#path-1"></use></mask><g id="Clip-2"></g><path d="M17.0615789,13.3747116 L11.8359001,11.5537454 C8.48517027,10.3208867 7.12191666,8.96941803 7.12191666,6.26724104 C7.12191666,3.50689959 8.71288609,1.39206974 12.1198796,1.39206974 C13.4827531,1.39206974 14.846767,1.9212524 15.4702294,2.86138798 L22.5632539,11.9555745 L23.763799,11.9555745 L23.763799,3.56544422 L19.901754,1.86270776 C17.4588461,0.922572187 14.6190512,0.275539938 11.8359001,0.275539938 C6.2129542,0.275539938 0.192360939,2.68423344 0.192360939,9.26328168 C0.192360939,14.0799084 3.315375,16.6060713 8.08790312,18.3091879 L13.3694654,20.1297739 C15.6416815,20.9516798 17.6873222,22.4213782 17.6873222,25.4752031 C17.6873222,28.0595305 16.2092603,29.9394215 12.4042393,29.9394215 C11.3823693,29.9394215 9.79139989,29.6455579 8.59845794,28.1777603 L1.50277232,18.9022374 L0.361912281,18.9022374 L0.361912281,27.7158659 L4.11181011,29.4102388 C6.66686519,30.5267686 9.33634842,31.1730406 12.8007461,31.1730406 C18.2537606,31.1730406 24.8993368,29.4102388 24.8993368,22.3035286 C24.8993368,17.3690523 21.6060111,15.0785886 17.0615789,13.3747116" id="Fill-1" fill="#000000" mask="url(#mask-2)"></path></g><path d="M107.121245,12.676814 L95.24999,30.7097016 L92.4668389,30.7097016 L82.7412067,1.34082417 L92.2569906,1.34082417 L98.8850795,22.8384897 L99.2264632,22.8384897 L105.871659,12.7353586 C107.405605,10.2688808 107.291177,9.50513944 107.007197,8.97633694 L103.202176,2.51513829 L103.202176,1.34082417 L110.643047,1.34082417 C111.210626,3.86546646 111.154362,6.50985913 107.121245,12.676814" id="Fill-4" fill="#000000"></path><path d="M71.8517528,29.8151852 C67.4076829,31.2198763 63.8528071,28.0634081 60.9343191,18.1917945 C57.96565,8.14948903 59.2566732,3.64725464 63.6999828,2.24218344 C68.1436726,0.837492389 71.6487474,3.82288854 74.6174165,13.865194 C77.5355243,23.7379481 76.2958227,28.4108743 71.8517528,29.8151852 M67.7779587,0.576702657 C58.973454,0.576702657 51.8169428,6.92081204 51.8169428,16.0256431 C51.8169428,25.1300939 58.973454,31.4730628 67.7779587,31.4730628 C76.5809427,31.4730628 83.6804299,25.1300939 83.6804299,16.0256431 C83.6804299,6.92081204 76.5809427,0.576702657 67.7779587,0.576702657" id="Fill-6" fill="#000000"></path><g id="Group-10" transform="translate(0.000000, 0.300745)"><mask id="mask-4" fill="white"><use xlink:href="#path-3"></use></mask><g id="Clip-9"></g><path d="M49.3016525,29.2341487 L49.3016525,30.4084629 L41.2361788,30.4084629 L41.2361788,29.2341487 L41.2361788,26.6498213 L41.2361788,11.2598057 C41.2361788,6.97198158 39.6463498,4.74120294 36.5221953,4.74120294 C32.716414,4.74120294 30.8418452,8.38199486 30.8418452,12.7283637 L30.8418452,26.6498213 L30.8418452,29.2341487 L30.8418452,30.4084629 L22.7763715,30.4084629 L22.7763715,29.2341487 L22.7763715,26.6498213 L22.7763715,11.0244867 C22.7763715,6.9138171 21.2998303,4.74120294 18.1760559,4.74120294 C14.4272985,4.74120294 12.3820379,8.50022461 12.3820379,13.1396967 L12.3820379,26.6498213 L12.3820379,29.2341487 L12.3820379,30.4084629 L4.31694442,30.4084629 L4.31694442,29.2341487 L4.31694442,26.6498213 L4.31694442,4.79898725 L-0.000152063983,2.21427969 L-0.000152063983,1.03996558 L12.3820379,1.03996558 L12.3820379,8.79332794 C13.5753601,3.80030704 16.6987543,0.276224226 22.0951249,0.276224226 C26.6950604,0.276224226 29.9328827,2.80238715 30.6711534,8.20636096 C31.9781433,3.50644339 35.1015375,0.276224226 40.3838602,0.276224226 C45.8372548,0.276224226 49.3016525,3.74100209 49.3016525,11.0834115 L49.3016525,26.6498213 L49.3016525,29.2341487 Z" id="Fill-8" fill="#000000" mask="url(#mask-4)"></path></g><g id="Group-13" transform="translate(109.486068, 0.300745)"><mask id="mask-6" fill="white"><use xlink:href="#path-5"></use></mask><g id="Clip-12"></g><path d="M12.3415129,1.69593159 C16.7407239,0.400726612 19.9583978,2.98087225 22.4180328,11.4249852 C22.297522,12.0149935 21.8918914,12.6681083 19.191235,13.5006586 L16.1666824,14.3799686 L8.91551135,16.3879735 C6.7645663,7.86250628 8.08068008,2.94969913 12.3415129,1.69593159 L12.3415129,1.69593159 Z M29.2289786,18.9019713 C27.9482197,22.3150474 25.5916081,24.3724731 22.4834203,25.2339156 C16.3932577,26.9210655 10.9645735,22.9358486 9.20975515,17.5238915 L30.5990751,11.5660246 C28.2173729,2.37413696 20.4860598,-1.59511317 12.0909875,0.731085616 C3.69781592,3.0572844 -1.46323568,11.0558499 0.814682791,19.8489498 C3.0941219,28.6431901 11.7640499,32.8865355 20.2686083,30.5295438 C25.9618839,28.9511197 29.5893702,24.7807649 30.613141,18.9019713 L29.2289786,18.9019713 Z" id="Fill-11" fill="#000000" mask="url(#mask-6)"></path></g></g></g></g></g></svg>